# xmcd
#
# Track frame offsets:
#	150
#	16567
#	34310
#	55072
#	73387
#	94010
#	108182
#	126045
#	137877
#	155052
#	167345
#	179252
#	199535
#	215282
#	232775
#	242900
#
# Disc length: 3413 seconds
#
# Revision: 1
# Processed by: cddbd v1.5.2PL0 Copyright (c) Steve Scherf et al.
# Submitted via: audiograbber 1.83.01
#
DISCID=d00d5310
DTITLE=Various Artist - CDXMAS 4 December 1993
DYEAR=1993
DGENRE=Christmas
TTITLE0=Doug Wayne - Almost Time For Christmas
TTITLE1=Clinton Gregory - Christmas In Virginia
TTITLE2=Travis Tritt - Christmas Just Ain't Christmas Without You
TTITLE3=Vince Gill - Have Yourself A Merry Little Christmas
TTITLE4=David Andrews featuring Raul Malo - I Don't Need Anything For Christmas
TTITLE5=Ricky Van Shelton - I'll Be Home For Christmas
TTITLE6=Michael James - It Wasn't His Child
TTITLE7=The Geezinslaws - Lighten Up It's Christmas
TTITLE8=Lorrie Morgan - My Favorite Things
TTITLE9=Doug Stone - Santa's Flying A 747 Tonight
TTITLE10=Garth Brooks - The Old Man's Back In Town
TTITLE11=George Strait - There's A New Kid In Town
TTITLE12=Doug Stone - Three Little Pennies
TTITLE13=Kathy Mattea - What A Wonderful Beginning
TTITLE14=Kenny Rogers - Winter Wonderland
TTITLE15=Reddmann - Chasin' That Neon Reindeer
EXTD=
EXTT0=
EXTT1=
EXTT2=
EXTT3=
EXTT4=
EXTT5=
EXTT6=
EXTT7=
EXTT8=
EXTT9=
EXTT10=
EXTT11=
EXTT12=
EXTT13=
EXTT14=
EXTT15=
PLAYORDER=
